<?xml version="1.0" encoding="UTF-8"?>
<svg id="Layer_1" data-name="Layer 1" xmlns="http://www.w3.org/2000/svg" viewBox="0 0 794.89 437.35">
  <path d="M632.89,92.12l16.87,61.39,83.26,8.74c11.35,2.66,21.71,7.26,29.75,15.74,4.97-28.4,5.21-62,16.83-88.68.66-1.51,4.14-9.83,6.17-8.32,5.05,23.7-.06,50.42-5.66,73.82-1.72,7.17-10.19,30.04-10.2,34.67,0,4.08,4.79,11.27,4.06,16.31,5.49,2.74,11.69,6.15,16.28,10.22,1.1.97,5.45,4.62,4.52,5.95l-25.08,11.67c-1.44,4.85-3.16,9.64-5.75,14.02-2.1,3.55-6.01,6.83-7.39,9.61-3.4,6.88-5.7,20.81-8.76,29.24-4.35,11.95-11.24,27.22-18.21,37.79-.68,1.03-10.09,14.71-10.8,10.11-1.25-20.49,6.63-40.05,11.99-59.42l-82.99,7.01,4.66,7.83c38.02-5.42,62.16,42.53,31.86,68.18-34.11,28.88-82.17-16.88-55.95-53.08l-10.53-15.47-46.82,16.75-14.31,47.16c29.8,12.22,40.38,51.43,14.6,73.64-36.95,31.84-88.71-16.3-61.94-57.94,5.92-9.21,13.94-12.87,23.26-17.74l7.16-33.33c-37.68,11.54-74.66,25.35-112.23,37.26-27.34,8.66-52.3,17.95-81.22,19.78-26.79,1.69-58.4,1.67-85.04-1.05-11.11-1.13-31.73-2.12-26.83-18.82,2.03-6.91,9.99-10.3,16.06-12.93,53.2-23.12,113.82-40.08,168.51-61.49,6.11-2.39,13.83-4.72,18.75-8.74l-35.49-3.02c-72.78-14.68-144.77-33.17-217.07-50.05-2.67-.6-8.61,10.19-9,12.03-1.06,5.02,2.99,9.1-2.43,15.54-7.73,9.18-22.62,3.23-21.57-8.56.97-10.77,13.42-11.94,15.55-22.94-23.19-4.88-45.77-11.1-61.97-29.51-19.02,6.14-37.58,7.41-57.52,6.49-10.06-.47-29.3-1.83-38.55-4.45-11.75-3.33-13.05-13.42-2.87-19.95,14.2-9.12,43.29-13.32,59.6-21.4,3.81-1.89,7-5.31,8.07-9.51-14.49-31.29.76-119.55,47.51-112.43,32.4,4.93,43.05,48.23,58.74,71.32,6.05-.52,11.42-3.94,17.5-4.55,13.58-1.36,41.64.14,54.47,4.51,3.42,1.17,6.34,3.89,10.02,4.49l-1.06,2.43-40.94,25.55,53.54.05c30.94-2.78,62.08-4.68,92.82-9.18,40.1-5.87,93.85-29.5,133.16-43.84,60.1-21.92,121.33-48.48,181.71-68.29,18.78-6.16,61.95-13.11,76.31,4.23,10.33,12.48-2.8,21.01-12.52,26.56-18.09,10.33-38.84,20.15-57.66,29.34-18.18,8.87-36.66,17.28-55.24,25.27ZM242.78,183.98c30.31,3.61,60.98,4.02,91.53,4.05,39.77-1.68,84.12-19.99,121.98-33.02,76.41-26.29,151.92-55.37,224.84-90.16,19.62-9.36,54.34-24.2,70.98-36.02,4.5-3.2,9-11.3,2.68-14.83.67,7.05-.89,7.48-6,10.51-20,11.87-47.78,23.69-69.34,33.66-95.39,44.14-202.5,85.28-303.15,115.85-41.17,12.5-87.12,11.61-129.99,8.94-1.08-.07-3.79-.64-3.52,1.03ZM673.77,18.01l-50.24,18.24-44.75,17.74c3.71-.03,7.32.35,11.01-.48,16.01-3.6,35.57-16.47,51.96-21.04l32.03-14.46ZM359.77,124.01c-17.46,2-34.97,4.53-52.5,5.98-14.33,1.19-28.64,1.48-42.98,2.02-47.14,1.75-65.63,4.8-90.68-39.34-13.34-23.51-23.08-60.32-52.83-66.66,3.74,3.51,8.53,5.7,12.47,9.02,34.09,28.72,35.62,98.23,88.02,103.98,37.02,4.06,81.87-2.53,118.73-7.28l19.77-7.71ZM207.77,137.01l-76.5-9-13.48-95,8.89,95.9c-14.85,4.23-31.79,5.65-46.44,10.06-1.34.4-3.11.08-3.46,2.03l51.46-10.03c24.75.56,49.38,5.29,74.05,7.02,1.19.08,5.47.84,5.48-.98ZM551.77,58h50l-18.46-2.04h-22.09s-9.45,2.04-9.45,2.04ZM569.77,61.01c-15.48-.76-29.09,9.02-43.77,12.71l-3.22,2.27c4.63-1.52,9.33-.6,14.05-1.44,6.99-1.24,21.79-7.98,28.9-11.1,1.23-.54,4.01-.96,4.05-2.43ZM544.27,79c-10.1-1.02-21.71.75-32,0l-45.49,17.99c5.45.32,9.95.1,15.2-1.28,7.19-1.88,33.25-14.71,37.29-14.71h30.5v-.99c-2.05.79-4.23-.88-5.5-1.01ZM208.27,97c7.71-.82,16.65.6,24.5,0l-10.51-1.99c-14.34-.84-23.77.22-36.76,6.22-1.3.6-3.2,1.72-.22,1.8,7.55-.87,15.54-5.24,22.99-6.03ZM641.76,153l-17.49-56.99c-2.08,1.53-1.48,2.95-1.08,5.03,2.07,10.97,11.71,37.95,16.31,48.74.53,1.23.54,2.95,2.26,3.23ZM257.77,99c-4.5-.93-6.93-1.67-11.4.1-5.09,2.02-31.79,18.89-36.33,22.66-.86.71-2.64,1.14-2.26,2.72,4.64,4.62,10.32.38,15.02-1.97,8.43-4.21,25.2-13.95,32.31-19.69,1.31-1.06,3.04-1.72,2.67-3.82ZM499.77,103.01l-52.49-2-18.5,5.98c22.24-4.68,44.98-2.08,67.51-2.99,1.22-.05,3.72.75,3.48-.99ZM629.77,150.99l-18.49-47.98c-1.22.9-2.4,1.33-3.38,2.62-4.24,5.63-13.02,23.18-16.65,30.35-1.95,3.85-5.37,7.69-.87,10.92l39.39,4.09ZM441.77,110.01l-19.01,2.48-157.24,56.77-2.74,1.73,167.51-55.97,11.48-5.01ZM584.77,115l-10.95,4.05,2.97,7.95c2.38.56,1.61-.43,2.21-1.3.8-1.15,6.2-10.27,5.77-10.69ZM565.76,152.99l7.74-12.48c-1.46-2.83-8.38-16.61-11.04-16.35-2.27,1.85-11.65,3.25-11.7,6.28-.02,1.25,11.12,19.94,12.56,21.51.83.9,1,1.35,2.44,1.04ZM588,151.77l-17.74-27.77c-1.48.76.21,2.41.71,3.29,1.57,2.76,15.99,23.55,14.8,24.7-7.43.32-13.85,4.66-19.68,8.88-1.48.25-1.96-1.11-2.74-1.95-6.59-7.06-10.97-20.94-18.56-27.92l18.86,30.68-4.86,7.32c8.34-7.22,17.56-16.13,29.54-15.05l138.45,20.06-1.99,4.99,9.97-8.5c.11-1.39-8.06-2.14-9.62-2.36-45.52-6.64-91.61-9.76-137.13-16.37ZM541.77,173c9.02,2,11.31-6.46,16.77-11.49l-18.76-27.51,1.99,39ZM127.77,137.01l-23.76,3.73-84.23,30.25c23.5-5.91,46.67-13.37,69.76-20.72,11.46-3.65,24.46-7.16,35.48-11.53,1.06-.42,2.98-.29,2.74-1.73ZM528.77,139c-10.72.08-11.98,9.47-16.8,16.68-.16.89,8.28,14.46,9.31,15.31,2.39,2,6.47.68,9.5,1.01l-2.01-33ZM196.77,140.01c-6.74.97-13.38,1.58-19.96,3.53-32.72,9.71-64.36,33.26-99.5,35.5-22.42.12-44.83.18-67.05-3.06l-1.51,2.52c.48,1.43,10.67,3.09,12.65,3.37,33.13,4.64,65.75,5.58,97.34-6.4,22.24-8.44,48.24-19.93,69.71-30.29,2.74-1.32,6.58-2.6,8.32-5.17ZM564.76,244l-23.17-35.32-41.34-58.66-4.47-1.02,68.99,94.99ZM485.77,156.01l-4.11.57-24.88,88.41,28.99-88.99ZM474.77,158c-6.18.99-12.76,1.99-10.94,9.94l7.98.62,2.95-10.57ZM454.83,171.95l-.06-6.95c-2.07.67-1.11,7.82-.05,8.56l15.05,1.44c.42-2.77-.46-1.89-2.47-2-4.2-.25-8.34-.02-12.47-1.04ZM241.77,171.01l-37.01-.51c6.73,1.96,13.61,1.19,20.5,1.51,1.94.09,3.83.96,5.96,1.03,2.93.09,8.9.77,10.54-2.03ZM760.77,182.99c-8.33-19.56-27.84-12.07-35.87,3.63-9.05,17.68-10.69,48.46-1.66,66.42,1.79,3.56,7.53,11.55,11.15,12.86,1.82.66,1.18-.44,1.6-1.18.71-1.24,4.7-8.54,4.63-9.05-.16-1.04-3.19-4.26-4.02-6.01-6.76-14.27-7.19-32.32-3.11-47.45,3.47-12.87,12.35-26.04,27.27-19.22ZM550.77,179c-.66.41-13.11,0-15.5,0-1.88,0-6.53-2.1-9.49-.99.17,1.61,4.27,1.87,5.51,1.98,3.01.28,17.12,1.44,18.83.84,1.23-.43,3.73-4.2,3.65-5.83-2.07-.01-2.78,3.87-2.99,4ZM465.77,186c-20.69-1.14-41.29-4.61-61.99-4.99l8.5,1.98c17.36,1.52,34.79,2.78,52.08,4.94,1.98.25,1.45-.23,1.41-1.93ZM760.77,186c-7.76-1.01-16.02,1.01-18.99,8.99,5.32-4.72,10.64-10.81,18.51-7.02l.48-1.98ZM507.77,190.01c-8.63-.94-17.28-2.35-25.99-2,.51,1.33,5.26,1.73,6.62,1.87,4.19.42,8.7.83,12.88,1.11,1.37.09,6.18.86,6.49-.98ZM714.76,208.99l1.78-9.54-2.26-1.46c-37.2-1.39-74.38-4.89-111.5-5.99l111,9.98.98,7ZM649.77,203.01l-112.99-10c.38,1.83,1.96,1.85,3.46,2.03,6.59.78,13.42,1.32,20.04,1.96,26.97,2.6,54.1,3.73,81,7l8.49-.98ZM756.77,202.01c-11.84,2.43-10.62,19.61-5.99,27.98,2.33-1-.77-5.16-1.04-7.46-.97-8.13,1.38-14.8,7.03-20.52ZM789.76,219.01l-30.9-9.93-1.04,8.86c9.49,1.39,19,1.03,28.57,1.93,1.12.1,3.6.92,3.37-.87ZM248.78,359.99c31.23,3.73,63,5.36,94.54,4.05,34.32-1.42,72.17-16.34,104.98-27.02,36.15-11.76,72.18-24.29,108-37,32.16-11.42,64.71-22.61,96.01-36,3.65-5.8-10.84-11.35-14.93-11.9-5.47,9.66-17.1,14.52-26.92,19.05-35,16.17-78.04,29.47-114.91,42.09-55.65,19.06-119.55,44.62-178.23,46.77-19.63.72-40.47.17-59.99-1.09l-8.54,1.04ZM527.77,254.01l-26.51,5.97-40.48,16,11.04.56,55.94-22.54ZM487.77,282.01c-17.32-.53-37.94-8.59-52.99,2.98,3.33-.84,7.38,1.04,10.27.79,3.8-.32,8.19-4.23,13.23-4.79,8.23-.91,16.79,1.52,24.97,2.04,1.08.07,4.72.69,4.53-1.03ZM661.76,325c.19-1.77-1.03-3.17-1.83-4.66-5.43-10.09-12.34-22.95-18.74-32.26-1.32-1.92-2.62-5.26-5.41-5.08-1.14,1.27,3.63,8.32,4.58,9.91,6.55,10.95,14.14,21.6,21.41,32.08ZM443.77,290.01l-27.99-3,24.52,3.98,3.47-.98ZM421.76,295.01c-4.73-1.42-9.97-1.54-14.81-.33l-128.18,50.31,142.99-49.98ZM557.77,311c-1.94-.3-3.05,1.19-3.74,2.75-4.55,10.41-4.92,27.15-9.26,38.23,2.77.49,1.69-.57,2.26-2.19,4.32-12.3,7.57-26.11,10.74-38.8ZM561.76,392c-8.73-19.77-38.3-23.54-44,.49,2.72-.72,3.49-4.52,5.52-6.48,11.64-11.29,29.06-4.57,38.48,5.99ZM546.45,401.68c8.71-9.55-9.38-21.78-15.55-10.06-5.15,9.79,9.36,16.84,15.55,10.06Z"/>
</svg>